<svg style="enable-background:new 0 0 118.91 122.88" version="1.1" viewBox="0 0 118.91 122.88" xmlns="http://www.w3.org/2000/svg">
 <style type="text/css">.st0{fill-rule:evenodd;clip-rule:evenodd;}</style>
 <rect x=".070417" y=".15554" width="118.77" height="122.58" style="fill:#fff"/>
 <g transform="matrix(.90794 0 0 .90794 5.4763 5.6637)" style="stroke-width:1.1014">
  <path class="st0" d="m6.41 23.43 49.53 20.15c1.57 0.64 4.17 1.04 5.74 0.4l52.42-21.41c1.57-0.64-0.02-3.49-1.62-4.05l-52.86-18.52c-0.4-0.14-10.33 3.48-11.72 3.97l-43.11 15.41c-1.67 0.59-0.53 3.17 1.62 4.05zm110.46 70.91-51.73 28.06c-1.49 0.81-3.56 0.69-3.56-1.01l-0.01-66.03c0-1.7 0.14-3.36 1.7-4.03l51.92-22.12c1.56-0.66 3.73-0.07 3.72 1.62l-0.34 59.48c-0.01 1.69-0.21 3.22-1.7 4.03zm-11.88-23.25c3.52 1.5 4.55 6.77 2.28 11.78-2.26 5-6.96 7.84-10.48 6.34s-4.55-6.77-2.28-11.78c2.27-5 6.96-7.84 10.48-6.34zm-18.77-13.81c3.65 1.55 4.7 7.01 2.36 12.19s-7.2 8.12-10.85 6.57-4.7-7.01-2.36-12.19c2.34-5.19 7.2-8.13 10.85-6.57zm-84.41 36.61 51.26 27.75c1.49 0.81 3.56 0.69 3.56-1.01l0.01-65.42c0-1.7-0.14-3.36-1.7-4.03l-51.22-21.96c-1.56-0.67-3.72-0.07-3.72 1.63l0.11 59.02c0 1.69 0.21 3.21 1.7 4.02zm5.1-18.15c3.21-2.04 7.99 0.29 10.66 5.2s2.24 10.56-0.97 12.6-7.99-0.29-10.66-5.2c-2.67-4.92-2.24-10.56 0.97-12.6zm15.15-11.37c3.4-2.06 8.45 0.29 11.28 5.26s2.38 10.67-1.02 12.73-8.45-0.29-11.28-5.26c-2.84-4.96-2.38-10.66 1.02-12.73zm16.06-12c3.42-2.07 8.51 0.29 11.36 5.26s2.39 10.68-1.03 12.74c-3.42 2.07-8.51-0.29-11.36-5.26s-2.39-10.67 1.03-12.74zm21.04-36.89c6.04 0 10.93 2.34 10.93 5.22s-4.89 5.22-10.93 5.22c-6.03 0-10.93-2.34-10.93-5.22s4.9-5.22 10.93-5.22z" style="clip-rule:evenodd;fill-rule:evenodd;stroke-width:1.1014"/>
 </g>
</svg>
